<?xml version="1.0" encoding="UTF-8"?>
<svg version="1.1" xmlns="http://www.w3.org/2000/svg" width="187" height="187">
<path d="M0 0 C7.5984836 4.44219042 12.35584415 10.56294095 15.0859375 18.90234375 C17.32360614 29.27356078 16.56654651 39.57187158 11.78125 49.125 C11.12125 50.115 10.46125 51.105 9.78125 52.125 C10.36261719 52.38796875 10.94398437 52.6509375 11.54296875 52.921875 C20.46608594 57.71824515 25.23951596 67.01915045 28.78125 76.125 C29.18928774 78.44643506 29.54523858 80.77982321 29.78125 83.125 C30.77125 83.125 31.76125 83.125 32.78125 83.125 C32.3790625 81.26875 32.3790625 81.26875 31.96875 79.375 C31.6875 77.17578125 31.6875 77.17578125 31.78125 75.125 C33.96875 72.5625 33.96875 72.5625 36.78125 71.125 C39.83316378 71.29939507 40.59383515 71.93758515 42.78125 74.125 C43.44125 72.475 44.10125 70.825 44.78125 69.125 C52.65625 70 52.65625 70 53.78125 71.125 C53.82217937 73.45797433 53.82366723 75.79205225 53.78125 78.125 C56.75125 77.63 56.75125 77.63 59.78125 77.125 C62.47273306 80.93793434 63.28832684 83.45989303 62.78125 88.125 C62.12125 89.115 61.46125 90.105 60.78125 91.125 C61.461875 91.57875 62.1425 92.0325 62.84375 92.5 C65.53824539 96.15060665 64.81826691 98.62738958 64.23828125 102.98046875 C63.78125 105.125 63.78125 105.125 62.78125 106.125 C61.11507885 106.16563832 59.44736905 106.167721 57.78125 106.125 C58.1834375 107.9503125 58.1834375 107.9503125 58.59375 109.8125 C59.06889206 113.52124774 58.92434835 113.92466231 56.59375 117.1875 C53.78125 119.125 53.78125 119.125 51.65625 119.125 C49.62268025 118.04042947 48.28888707 116.85878263 46.78125 115.125 C46.45125 116.775 46.12125 118.425 45.78125 120.125 C42.40625 120.25 42.40625 120.25 38.78125 120.125 C36.2157906 117.5595406 36.24078913 115.64813332 35.78125 112.125 C35.06952007 112.61242046 34.35779015 113.09984093 33.62449265 113.60203171 C30.50606457 115.27240166 28.79023427 115.49792353 25.28936768 115.49249268 C23.65308662 115.50084641 23.65308662 115.50084641 21.98374939 115.5093689 C20.79705154 115.50015411 19.6103537 115.49093933 18.38769531 115.48144531 C17.13036087 115.48348969 15.87302643 115.48553406 14.57759094 115.48764038 C11.13773074 115.49276361 7.69817092 115.47926311 4.25835896 115.46211338 C0.65936842 115.44706018 -2.93961851 115.44825109 -6.53863525 115.44744873 C-12.5777295 115.44375968 -18.61670984 115.42880673 -24.65576172 115.40625 C-32.41623735 115.37732324 -40.17662154 115.3670214 -47.93714523 115.3625679 C-54.60330867 115.35859409 -61.26945209 115.34609552 -67.93560123 115.33222103 C-70.08225776 115.3281171 -72.22891358 115.32519411 -74.3755722 115.32242584 C-78.36466832 115.31664025 -82.35370397 115.30197297 -86.34277344 115.28613281 C-87.53756821 115.28501495 -88.73236298 115.28389709 -89.96336365 115.28274536 C-91.04293839 115.27703522 -92.12251312 115.27132507 -93.23480225 115.26544189 C-94.65061396 115.2609799 -94.65061396 115.2609799 -96.09502792 115.25642776 C-98.21875 115.125 -98.21875 115.125 -99.21875 114.125 C-100.19564114 101.88354343 -101.01762213 88.27530042 -95.21875 77.125 C-94.75984375 76.22910156 -94.3009375 75.33320312 -93.828125 74.41015625 C-90.92552027 69.20838304 -87.72858052 65.01985363 -83.21875 61.125 C-82.55875 61.125 -81.89875 61.125 -81.21875 61.125 C-81.49589844 60.46113281 -81.77304688 59.79726562 -82.05859375 59.11328125 C-82.42082031 58.23027344 -82.78304687 57.34726563 -83.15625 56.4375 C-83.51589844 55.56738281 -83.87554687 54.69726562 -84.24609375 53.80078125 C-87.88976667 43.77702241 -86.2110722 34.79775594 -82.21875 25.125 C-79.26415855 20.26984269 -75.67662836 16.94429279 -70.21875 15.125 C-64.90803079 14.34687264 -60.45258792 14.67970073 -55.84765625 17.74609375 C-48.2328721 24.19218201 -45.87031231 32.35401956 -44.78125 42 C-45.02093524 48.39160639 -47.37243812 55.43237624 -50.21875 61.125 C-49.661875 61.33125 -49.105 61.5375 -48.53125 61.75 C-45.29373698 63.67500774 -43.53643859 66.16350902 -41.21875 69.125 C-38.99673383 67.00785775 -37.19132481 64.80570366 -35.40625 62.3125 C-32.61121495 58.54164224 -29.69400793 55.28432539 -26.21875 52.125 C-25.55875 52.125 -24.89875 52.125 -24.21875 52.125 C-24.56808594 51.46113281 -24.91742188 50.79726562 -25.27734375 50.11328125 C-25.73238281 49.23027344 -26.18742187 48.34726563 -26.65625 47.4375 C-27.10871094 46.56738281 -27.56117187 45.69726562 -28.02734375 44.80078125 C-31.95439368 35.98101338 -31.4018645 24.3694982 -28.265625 15.375 C-23.18596227 4.45751593 -12.55784711 -4.95239041 0 0 Z M-18.96875 11.875 C-23.09446858 17.83437129 -24.76700904 22.759673 -24.65625 30 C-24.64795166 30.70108887 -24.63965332 31.40217773 -24.63110352 32.12451172 C-24.41102389 38.89293929 -23.18690637 44.01802118 -18.46484375 48.9609375 C-14.135004 52.81169269 -11.30750811 54.49997527 -5.30859375 54.40234375 C-0.32336282 53.74075236 3.68554596 49.93505978 6.671875 46.06640625 C11.00052792 38.49126364 11.28144305 30.49868831 9.64453125 22.11328125 C7.82945871 15.83033783 4.53107593 10.46792205 -1.21875 7.125 C-8.56011481 5.34886335 -13.42825335 6.33450335 -18.96875 11.875 Z M-75.67578125 26.96484375 C-79.96948762 33.6095709 -80.8696214 39.25537308 -80.21875 47.125 C-78.98542071 52.72839371 -76.73885482 56.46586753 -72.21875 60.125 C-69.09824111 61.93161041 -67.35476344 62.12742881 -63.71875 62.0625 C-58.56335174 60.68158975 -56.40619724 57.86376203 -53.46875 53.5625 C-50.51332841 47.79942791 -50.33356842 41.14665174 -51.71484375 34.87109375 C-53.52757131 29.47387665 -56.41132054 25.96737558 -61.21875 22.8125 C-66.75161313 20.9105783 -71.98090772 22.29919916 -75.67578125 26.96484375 Z M-23.3671875 58.42578125 C-34.45570324 68.44435249 -40.26857582 81.15975673 -41.21875 96.125 C-41.21875 100.085 -41.21875 104.045 -41.21875 108.125 C-18.77875 108.125 3.66125 108.125 26.78125 108.125 C26.78125 90.11929498 25.46081375 75.0267466 12.65625 61.375 C9.83640426 58.59025607 7.76399731 57.47470464 3.78125 57.125 C2.11061253 58.11835201 0.44449401 59.11931758 -1.21875 60.125 C-6.79242246 61.40420352 -10.1443235 61.21989105 -15.359375 58.9140625 C-19.38310378 57.00058225 -19.38310378 57.00058225 -23.3671875 58.42578125 Z M-77.21875 65.125 C-87.67440565 73.42725759 -92.03863732 82.04432394 -94.21875 95.125 C-94.21875 99.415 -94.21875 103.705 -94.21875 108.125 C-78.37875 108.125 -62.53875 108.125 -46.21875 108.125 C-45.88875 101.525 -45.55875 94.925 -45.21875 88.125 C-44.744375 86.0625 -44.27 84 -43.78125 81.875 C-43.15462304 78.9182491 -43.00270577 77.62232534 -44.21484375 74.83203125 C-47.20616071 70.56649097 -50.72512437 67.69278608 -55.21875 65.125 C-56.0025 65.62 -56.78625 66.115 -57.59375 66.625 C-63.53739704 69.08444015 -68.90010296 69.08444015 -74.84375 66.625 C-75.6275 66.13 -76.41125 65.635 -77.21875 65.125 Z M43.28125 80.625 C39.78125 81.125 39.78125 81.125 38.78125 81.125 C38.513125 82.1975 38.245 83.27 37.96875 84.375 C36.91897173 87.69008928 36.03512672 89.56377646 33.78125 92.125 C34.11125 92.455 34.44125 92.785 34.78125 93.125 C34.86037947 94.7075894 34.91954904 96.29119763 34.96875 97.875 C35.26867842 101.64198288 35.26867842 101.64198288 37.109375 104.828125 C38.90500899 106.31915274 38.90500899 106.31915274 41.78125 108.125 C42.44125 108.785 43.10125 109.445 43.78125 110.125 C43.78125 109.465 43.78125 108.805 43.78125 108.125 C47.24625 107.63 47.24625 107.63 50.78125 107.125 C51.11125 107.785 51.44125 108.445 51.78125 109.125 C51.96300781 108.49851562 52.14476562 107.87203125 52.33203125 107.2265625 C52.58339844 106.40929687 52.83476562 105.59203125 53.09375 104.75 C53.45919922 103.53183594 53.45919922 103.53183594 53.83203125 102.2890625 C54.78125 100.125 54.78125 100.125 57.78125 98.125 C57.12125 97.465 56.46125 96.805 55.78125 96.125 C55.76171875 93.84765625 55.76171875 93.84765625 55.96875 91.1875 C56.09320769 88.53444338 56.09320769 88.53444338 55.78125 86.125 C53.34274148 83.94317659 52.0491351 83.125 48.78125 83.125 C48.45125 82.135 48.12125 81.145 47.78125 80.125 C46.27201914 80.125 44.77531232 80.41156253 43.28125 80.625 Z " fill="#474747" transform="translate(99.21875,45.875)"/>
<path d="M0 0 C-0.65393732 5.29689226 -3.17641523 7.91065531 -6.6015625 11.81640625 C-8.22915724 13.86632988 -8.22915724 13.86632988 -7.80859375 16.10546875 C-6.76214957 18.5572824 -5.43354658 20.75618796 -4 23 C-1.0991395 22.64701919 -0.10483324 22.11271704 1.921875 19.93359375 C2.82679688 18.69802734 2.82679688 18.69802734 3.75 17.4375 C4.36359375 16.61121094 4.9771875 15.78492188 5.609375 14.93359375 C6.06828125 14.29550781 6.5271875 13.65742187 7 13 C7.99 13.495 7.99 13.495 9 14 C9.59319631 27.57760454 9.59319631 27.57760454 4.62890625 33.6875 C1.92006769 36.49377879 0.02852528 37.86710844 -3.90234375 38.375 C-6.62788851 38.375 -9.28823657 38.26480149 -12 38 C-12.99971518 40.09969491 -12.99971518 40.09969491 -13 43 C-11.57778032 45.91925244 -9.67544799 48.45621743 -7.75 51.0625 C-7.24597656 51.76955078 -6.74195313 52.47660156 -6.22265625 53.20507812 C-3.39427301 57.17232075 -3.39427301 57.17232075 -0.27734375 60.91015625 C1.87232315 64.42719538 2.40218811 68.36593695 3.1875 72.375 C3.36474609 73.21289062 3.54199219 74.05078125 3.72460938 74.9140625 C5.51291947 83.6968055 5.51291947 83.6968055 5 88 C4.01 88.66 3.02 89.32 2 90 C-9.51917163 85.19445601 -16.38961168 80.89112437 -23 70 C-23.54398438 69.15953125 -24.08796875 68.3190625 -24.6484375 67.453125 C-25.80090055 65.65757483 -26.90746839 63.83263367 -28 62 C-29.485 62.495 -29.485 62.495 -31 63 C-32.08755785 65.80091716 -32.01192891 68.2284062 -31.8125 71.1875 C-31.76395526 77.08083177 -33.53331289 82.16162031 -37.42578125 86.640625 C-40.37810783 89.2954303 -43.01317192 90.89777364 -47 91 C-49.8125 90.0625 -49.8125 90.0625 -52 89 C-50.26055691 85.20868957 -47.89417219 82.28892012 -45.2421875 79.09765625 C-43.71285453 76.5151034 -43.66077607 74.95609421 -44 72 C-45.43990623 69.82967524 -45.43990623 69.82967524 -47 68 C-47 67.34 -47 66.68 -47 66 C-48.32 66 -49.64 66 -51 66 C-51.226875 66.515625 -51.45375 67.03125 -51.6875 67.5625 C-53.4975553 70.92403127 -55.73996404 73.92911144 -58 77 C-58.99 76.67 -59.98 76.34 -61 76 C-61.74649581 68.20326597 -60.48017864 62.4950738 -56 56 C-53.25264906 53.37752864 -51.56261645 52.05896666 -47.72265625 51.9140625 C-45.3125 52 -45.3125 52 -43.05078125 52.25 C-40.78769398 52.21559802 -40.78769398 52.21559802 -39.37182617 49.984375 C-38.91912354 49.32953125 -38.4664209 48.6746875 -38 48 C-38.54003662 47.19780029 -39.08007324 46.39560059 -39.63647461 45.5690918 C-41.63966441 42.59146272 -43.63826618 39.6107783 -45.63549805 36.62915039 C-46.50045992 35.33924944 -47.36666287 34.0501798 -48.23413086 32.76196289 C-49.48097923 30.9098899 -50.72333002 29.0548706 -51.96484375 27.19921875 C-52.35341049 26.62411057 -52.74197723 26.04900238 -53.14231873 25.45646667 C-56.47065598 20.4650074 -57.40817054 17.0205155 -57 11 C-55.28731833 6.40280183 -53.30474541 3.44587807 -49 1 C-45.6875 0.625 -45.6875 0.625 -42 2 C-36.28301835 7.54478341 -32.12212398 14.65997938 -27.859375 21.3359375 C-26.09641887 23.86185363 -24.24640305 25.9026945 -22 28 C-19.29833123 25.29833123 -19.77195925 23.76954987 -19.6875 20 C-19.21081166 12.4566161 -17.35348871 6.16718378 -11.75 0.875 C-7.81415065 -0.3773157 -4.09397673 -0.24082216 0 0 Z M-49.625 9.0625 C-51.72837213 12.02634255 -51.31551482 14.46623402 -51 18 C-50.01 19.485 -50.01 19.485 -49 21 C-45.65001479 19.88333826 -45.20659778 19.25305075 -43.3125 16.4375 C-42.87550781 15.79683594 -42.43851563 15.15617187 -41.98828125 14.49609375 C-41.66214844 14.00238281 -41.33601563 13.50867188 -41 13 C-42.62339805 11.29115995 -44.29319053 9.62553283 -46 8 C-48.04459814 7.81758355 -48.04459814 7.81758355 -49.625 9.0625 Z M-38 19 C-38 23.18805979 -37.79983538 23.77526099 -35.5 26.95703125 C-34.94989258 27.72950195 -34.39978516 28.50197266 -33.83300781 29.29785156 C-33.22811523 30.12768555 -32.62322266 30.95751953 -32 31.8125 C-30.72303421 33.59439019 -29.44703315 35.37697203 -28.171875 37.16015625 C-27.49576172 38.10133301 -26.81964844 39.04250977 -26.12304688 40.01220703 C-23.90739504 43.13032423 -21.73768603 46.27639909 -19.578125 49.43359375 C-18.85625 50.48635498 -18.134375 51.53911621 -17.390625 52.6237793 C-15.97489951 54.69133916 -14.56336603 56.7617763 -13.15625 58.83520508 C-12.51171875 59.77130615 -11.8671875 60.70740723 -11.203125 61.671875 C-10.63239258 62.5081543 -10.06166016 63.34443359 -9.47363281 64.20605469 C-8.98733398 64.79805664 -8.50103516 65.39005859 -8 66 C-7.34 66 -6.68 66 -6 66 C-7.24467231 62.63165366 -8.64280466 59.82798618 -10.73046875 56.91015625 C-11.27936768 56.13575195 -11.8282666 55.36134766 -12.39379883 54.56347656 C-12.98572021 53.7381543 -13.5776416 52.91283203 -14.1875 52.0625 C-15.44670455 50.28874782 -16.70446221 48.5139678 -17.9609375 46.73828125 C-18.94658691 45.34536865 -18.94658691 45.34536865 -19.95214844 43.92431641 C-24.14279673 37.94010263 -28.21472116 31.87346332 -32.2878418 25.80883789 C-33.19143433 24.47260376 -33.19143433 24.47260376 -34.11328125 23.109375 C-34.64735596 22.31499023 -35.18143066 21.52060547 -35.73168945 20.70214844 C-36.15023193 20.14043945 -36.56877441 19.57873047 -37 19 C-37.33 19 -37.66 19 -38 19 Z M-44 26 C-42.31880453 31.21066174 -39.16633883 35.37104594 -36.0625 39.8125 C-35.48564453 40.64620117 -34.90878906 41.47990234 -34.31445312 42.33886719 C-33.12568921 44.05676806 -31.93508754 45.77339865 -30.74267578 47.48876953 C-29.11096278 49.84010043 -27.48857386 52.19745654 -25.87109375 54.55859375 C-25.38568115 55.26717529 -24.90026855 55.97575684 -24.40014648 56.70581055 C-23.93809814 57.38039307 -23.4760498 58.05497559 -23 58.75 C-19.71877448 63.53866669 -16.38556058 68.28439776 -13 73 C-12.34 72.34 -11.68 71.68 -11 71 C-11.35078613 70.49887695 -11.70157227 69.99775391 -12.06298828 69.48144531 C-13.1313482 67.95521685 -14.19961701 66.42892461 -15.26782227 64.90258789 C-16.51765681 63.11746204 -17.7681574 61.33280234 -19.01928711 59.54858398 C-22.31881327 54.84116101 -25.60722751 50.12676271 -28.87109375 45.39453125 C-29.49032715 44.50024414 -30.10956055 43.60595703 -30.74755859 42.68457031 C-31.93301069 40.97193168 -33.11450777 39.25654683 -34.29150391 37.53808594 C-37.24478155 33.28166034 -40.18753638 29.51428211 -44 26 Z M-4 72 C-6.37015245 74.65484449 -6.37015245 74.65484449 -7 78 C-4.525 78.99 -4.525 78.99 -2 80 C-2.33 77.36 -2.66 74.72 -3 72 C-3.33 72 -3.66 72 -4 72 Z " fill="#414141" transform="translate(178,21)"/>
<path d="M0 0 C7.875 0.875 7.875 0.875 9 2 C9.04092937 4.33297433 9.04241723 6.66705225 9 9 C10.98 8.67 12.96 8.34 15 8 C17.69148306 11.81293434 18.50707684 14.33489303 18 19 C17.01 20.485 17.01 20.485 16 22 C16.680625 22.45375 17.36125 22.9075 18.0625 23.375 C20.75699539 27.02560665 20.03701691 29.50238958 19.45703125 33.85546875 C19 36 19 36 18 37 C16.33382885 37.04063832 14.66611905 37.042721 13 37 C13.4021875 38.8253125 13.4021875 38.8253125 13.8125 40.6875 C14.28764206 44.39624774 14.14309835 44.79966231 11.8125 48.0625 C9 50 9 50 6.875 50 C4.84143025 48.91542947 3.50763707 47.73378263 2 46 C1.67 47.65 1.34 49.3 1 51 C-2.375 51.125 -2.375 51.125 -6 51 C-8.5654594 48.4345406 -8.54046087 46.52313332 -9 43 C-9.71172993 43.48742046 -10.42345985 43.97484093 -11.15675735 44.47703171 C-14.27518543 46.14740166 -15.99101573 46.37292353 -19.49188232 46.36749268 C-21.12816338 46.37584641 -21.12816338 46.37584641 -22.79750061 46.3843689 C-23.98419846 46.37515411 -25.1708963 46.36593933 -26.39355469 46.35644531 C-27.65088913 46.35848969 -28.90822357 46.36053406 -30.20365906 46.36264038 C-33.64351926 46.36776361 -37.08307908 46.35426311 -40.52289104 46.33711338 C-44.12188158 46.32206018 -47.72086851 46.32325109 -51.31988525 46.32244873 C-57.3589795 46.31875968 -63.39795984 46.30380673 -69.43701172 46.28125 C-77.19748735 46.25232324 -84.95787154 46.2420214 -92.71839523 46.2375679 C-99.38455867 46.23359409 -106.05070209 46.22109552 -112.71685123 46.20722103 C-114.86350776 46.2031171 -117.01016358 46.20019411 -119.1568222 46.19742584 C-123.14591832 46.19164025 -127.13495397 46.17697297 -131.12402344 46.16113281 C-132.31881821 46.16001495 -133.51361298 46.15889709 -134.74461365 46.15774536 C-136.36397575 46.14918015 -136.36397575 46.14918015 -138.01605225 46.14044189 C-139.43186396 46.1359799 -139.43186396 46.1359799 -140.87627792 46.13142776 C-143 46 -143 46 -144 45 C-144.18062277 42.37948926 -144.27807881 39.81039474 -144.3125 37.1875 C-144.34150391 36.46240234 -144.37050781 35.73730469 -144.40039062 34.99023438 C-144.42578125 32.85546875 -144.42578125 32.85546875 -144 29 C-142.68 27.68 -141.36 26.36 -140 25 C-139.67 29.62 -139.34 34.24 -139 39 C-122.83 39 -106.66 39 -90 39 C-90 35.37 -90 31.74 -90 28 C-88.68 28.66 -87.36 29.32 -86 30 C-86 32.97 -86 35.94 -86 39 C-63.56 39 -41.12 39 -18 39 C-18.99 28.605 -18.99 28.605 -20 18 C-20 15.36 -20 12.72 -20 10 C-19.01 9.34 -18.02 8.68 -17 8 C-16.01 10.97 -16.01 10.97 -15 14 C-14.01 14 -13.02 14 -12 14 C-12.4021875 12.14375 -12.4021875 12.14375 -12.8125 10.25 C-13.09375 8.05078125 -13.09375 8.05078125 -13 6 C-10.8125 3.4375 -10.8125 3.4375 -8 2 C-4.94808622 2.17439507 -4.18741485 2.81258515 -2 5 C-1.34 3.35 -0.68 1.7 0 0 Z M-1.5 11.5 C-5 12 -5 12 -6 12 C-6.268125 13.0725 -6.53625 14.145 -6.8125 15.25 C-7.86227827 18.56508928 -8.74612328 20.43877646 -11 23 C-10.67 23.33 -10.34 23.66 -10 24 C-9.92087053 25.5825894 -9.86170096 27.16619763 -9.8125 28.75 C-9.51257158 32.51698288 -9.51257158 32.51698288 -7.671875 35.703125 C-5.87624101 37.19415274 -5.87624101 37.19415274 -3 39 C-2.34 39.66 -1.68 40.32 -1 41 C-1 40.34 -1 39.68 -1 39 C2.465 38.505 2.465 38.505 6 38 C6.33 38.66 6.66 39.32 7 40 C7.18175781 39.37351562 7.36351562 38.74703125 7.55078125 38.1015625 C7.80214844 37.28429687 8.05351562 36.46703125 8.3125 35.625 C8.67794922 34.40683594 8.67794922 34.40683594 9.05078125 33.1640625 C10 31 10 31 13 29 C12.34 28.34 11.68 27.68 11 27 C10.98046875 24.72265625 10.98046875 24.72265625 11.1875 22.0625 C11.31195769 19.40944338 11.31195769 19.40944338 11 17 C8.56149148 14.81817659 7.2678851 14 4 14 C3.67 13.01 3.34 12.02 3 11 C1.49076914 11 -0.00593768 11.28656253 -1.5 11.5 Z " fill="#404040" transform="translate(144,115)"/>
<path d="M0 0 C2.57521534 2.11535545 3.85765928 3.85110707 4.2734375 7.20703125 C4.45222624 11.7936502 4.51857499 14.23738972 1.875 18.125 C-1 20 -1 20 -4.0625 20.625 C-7 20 -7 20 -9.375 18.125 C-11.63443308 13.77993639 -11.67325176 9.81453295 -11 5 C-9.97202524 2.48521197 -9.39606544 1.28680601 -7.1875 -0.3125 C-4.36456125 -1.19970932 -2.794568 -0.93152267 0 0 Z " fill="#464646" transform="translate(148,131)"/>
<path d="M0 0 C2 2 2 2 2.4375 5.3125 C2 9 2 9 -0.125 11.9375 C-3 14 -3 14 -6.125 14.5 C-9 14 -9 14 -10.875 12.875 C-12.52854531 10.11909116 -12.39365568 8.14924548 -12 5 C-10.5 3.125 -10.5 3.125 -9 2 C-8.34 3.32 -7.68 4.64 -7 6 C-5.08533633 5.87822312 -5.08533633 5.87822312 -3 5 C-1.22851628 2.52066803 -1.22851628 2.52066803 0 0 Z " fill="#424242" transform="translate(150,137)"/>
<path d="M0 0 C0.33 0 0.66 0 1 0 C2.49944026 5.99776106 2.49944026 12.00223894 1 18 C0.34 16.68 -0.32 15.36 -1 14 C-2.32 15.32 -3.64 16.64 -5 18 C-4.67 13.38 -4.34 8.76 -4 4 C-3.01 4 -2.02 4 -1 4 C-0.67 2.68 -0.34 1.36 0 0 Z " fill="#525252" transform="translate(52,79)"/>
<path d="M0 0 C3.41199418 3.56708482 4.68721784 8.14740819 5 13 C3 16 3 16 1 17 C0.53476937 18.89533342 0.53476937 18.89533342 0.375 21.0625 C0.25125 22.361875 0.1275 23.66125 0 25 C-0.33 25 -0.66 25 -1 25 C-1.02917228 21.77085248 -1.04685663 18.54173917 -1.0625 15.3125 C-1.07087891 14.40048828 -1.07925781 13.48847656 -1.08789062 12.54882812 C-1.09111328 11.66259766 -1.09433594 10.77636719 -1.09765625 9.86328125 C-1.10289307 9.05157471 -1.10812988 8.23986816 -1.11352539 7.40356445 C-0.9929791 4.85135327 -0.559949 2.48973863 0 0 Z " fill="#4F4F4F" transform="translate(54,129)"/>
<path d="M0 0 C0.05418326 2.08304538 0.09287551 4.16649768 0.125 6.25 C0.14820312 7.41015625 0.17140625 8.5703125 0.1953125 9.765625 C0.0103949 12.82786046 -0.39176977 14.44202751 -2 17 C-2.33 15.68 -2.66 14.36 -3 13 C-3.66 13 -4.32 13 -5 13 C-5.02712066 11.56260487 -5.04645067 10.12506137 -5.0625 8.6875 C-5.07410156 7.88699219 -5.08570312 7.08648437 -5.09765625 6.26171875 C-5 4 -5 4 -4 1 C-2 0 -2 0 0 0 Z " fill="#383838" transform="translate(74,69)"/>
<path d="M0 0 C1.41377341 2.63904371 2.37240135 5.07120629 3 8 C3.66 8 4.32 8 5 8 C5.33 7.34 5.66 6.68 6 6 C6.05447047 7.41623216 6.09300508 8.83308191 6.125 10.25 C6.14820312 11.03890625 6.17140625 11.8278125 6.1953125 12.640625 C5.9828378 15.20731941 5.28654105 16.7916067 4 19 C4 17.68 4 16.36 4 15 C2.02 16.65 0.04 18.3 -2 20 C-1.7834375 18.58847656 -1.7834375 18.58847656 -1.5625 17.1484375 C-1.376875 15.90320313 -1.19125 14.65796875 -1 13.375 C-0.814375 12.14523438 -0.62875 10.91546875 -0.4375 9.6484375 C-0.04597484 6.3833973 0.08080924 3.28287549 0 0 Z " fill="#585858" transform="translate(109,69)"/>
<path d="M0 0 C0.33 0.66 0.66 1.32 1 2 C1.66 2 2.32 2 3 2 C3.22262606 4.08185451 3.42757926 6.16560426 3.625 8.25 C3.74101562 9.41015625 3.85703125 10.5703125 3.9765625 11.765625 C3.99955595 14.93872091 3.69705154 16.38317244 2 19 C1.34 18.67 0.68 18.34 0 18 C0 12.06 0 6.12 0 0 Z " fill="#323232" transform="translate(15,80)"/>
<path d="M0 0 C2 0 4 0 6 0 C5.67 3.96 5.34 7.92 5 12 C4.67 12 4.34 12 4 12 C3.67 10.35 3.34 8.7 3 7 C2.01 7.66 1.02 8.32 0 9 C0 6.03 0 3.06 0 0 Z " fill="#4F4F4F" transform="translate(0,135)"/>
<path d="M0 0 C0.99 0.33 1.98 0.66 3 1 C3.36814024 7.50381098 3.36814024 7.50381098 1.5625 9.9375 C0 11 0 11 -1 11 C-1.33 7.7 -1.66 4.4 -2 1 C-1.34 0.67 -0.68 0.34 0 0 Z " fill="#3D3D3D" transform="translate(112,67)"/>
<path d="M0 0 C2.00240521 2.25270587 2.94368221 3.60577544 3.375 6.625 C3.25125 7.40875 3.1275 8.1925 3 9 C2.01 9.66 1.02 10.32 0 11 C0 10.34 0 9.68 0 9 C-0.66 9 -1.32 9 -2 9 C-2.125 5.625 -2.125 5.625 -2 2 C-1.34 1.34 -0.68 0.68 0 0 Z " fill="#3B3B3B" transform="translate(49,74)"/>
<path d="M0 0 C2.0625 0.4375 2.0625 0.4375 4 1 C4 2.65 4 4.3 4 6 C2.0625 6.5625 2.0625 6.5625 0 7 C-1 6 -1 6 -1.125 3.5 C-1 1 -1 1 0 0 Z " fill="#F9F9F9" transform="translate(143,137)"/>
<path d="M0 0 C0.36923077 5.53846154 0.36923077 5.53846154 -1.5 7.875 C-2.2425 8.431875 -2.2425 8.431875 -3 9 C-3.33 6.36 -3.66 3.72 -4 1 C-2 0 -2 0 0 0 Z " fill="#343434" transform="translate(180,92)"/>
<path d="M0 0 C0.66 0 1.32 0 2 0 C1.4140625 6.15234375 1.4140625 6.15234375 1 8 C0.01 8.495 0.01 8.495 -1 9 C-1.625 5.625 -1.625 5.625 -2 2 C-1.34 1.34 -0.68 0.68 0 0 Z " fill="#333333" transform="translate(124,32)"/>
<path d="M0 0 C-0.33 2.64 -0.66 5.28 -1 8 C-1.99 7.34 -2.98 6.68 -4 6 C-4.1875 3.375 -4.1875 3.375 -4 1 C-2 0 -2 0 0 0 Z " fill="#313131" transform="translate(59,129)"/>
<path d="M0 0 C0.66 0 1.32 0 2 0 C2 1.32 2 2.64 2 4 C0.35 4.66 -1.3 5.32 -3 6 C-2.42655063 3.13275314 -2.1385485 2.1385485 0 0 Z " fill="#353535" transform="translate(4,131)"/>
<path d="M0 0 C0.66 0 1.32 0 2 0 C1.67 1.98 1.34 3.96 1 6 C-0.32 5.34 -1.64 4.68 -3 4 C-1.625 2 -1.625 2 0 0 Z " fill="#313131" transform="translate(111,84)"/>
</svg>
